<svg width="107" height="107" viewBox="0 0 107 107" fill="none" xmlns="http://www.w3.org/2000/svg">
<rect width="107" height="107" transform="translate(107 107) rotate(-180)" fill="#FFEA9A"/>
<path fill-rule="evenodd" clip-rule="evenodd" d="M53.5 -4.70054e-06C23.9528 -7.29657e-06 -8.03474e-06 23.9528 -1.0605e-05 53.5C-1.31752e-05 83.0472 23.9528 107 53.5 107C83.0472 107 107 83.0472 107 53.5C107 23.9528 83.0472 -2.1045e-06 53.5 -4.70054e-06ZM53.393 17.762C33.7145 17.762 17.762 33.7145 17.762 53.393C17.762 73.0714 33.7145 89.024 53.393 89.024C73.0714 89.024 89.024 73.0714 89.024 53.393C89.024 33.7145 73.0714 17.762 53.393 17.762Z" fill="#191853"/>
<ellipse cx="53.2854" cy="53.7144" rx="14.552" ry="14.552" transform="rotate(-180 53.2854 53.7144)" fill="#191853"/>
<ellipse cx="53.4503" cy="78.8393" rx="4.4351" ry="4.49269" transform="rotate(-180 53.4503 78.8393)" fill="#191853"/>
<circle cx="53.2772" cy="28.2683" r="4.49269" transform="rotate(-180 53.2772 28.2683)" fill="#191853"/>
<circle cx="68.2538" cy="32.9905" r="4.49269" transform="rotate(-180 68.2538 32.9905)" fill="#191853"/>
<ellipse cx="77.4691" cy="45.6628" rx="4.4927" ry="4.4927" transform="rotate(-180 77.4691 45.6628)" fill="#191853"/>
<ellipse cx="77.4691" cy="61.3291" rx="4.4927" ry="4.49269" transform="rotate(-180 77.4691 61.3291)" fill="#191853"/>
<ellipse cx="68.2538" cy="73.9441" rx="4.49269" ry="4.4351" transform="rotate(-180 68.2538 73.9441)" fill="#191853"/>
<ellipse cx="38.6474" cy="73.9441" rx="4.4927" ry="4.4351" transform="rotate(-180 38.6474 73.9441)" fill="#191853"/>
<circle cx="29.4322" cy="61.3291" r="4.49269" transform="rotate(-180 29.4322 61.3291)" fill="#191853"/>
<ellipse cx="29.3167" cy="45.6631" rx="4.49269" ry="4.49269" transform="rotate(-180 29.3167 45.6631)" fill="#191853"/>
<ellipse cx="38.5321" cy="32.9912" rx="4.4927" ry="4.49269" transform="rotate(-180 38.5321 32.9912)" fill="#191853"/>
</svg>
